<svg xmlns="http://www.w3.org/2000/svg" viewBox="0 0 64 64" fill="none">
  <path d="M10 28 18 9l10 8 8-10 6 12 13-2-4 13 8 9-13 5-1 13-13-4-11 7-4-13-13-2 8-11-2-6Z" fill="#111827" opacity=".14"/>
  <path d="M9 25 17 6l10 8 8-10 6 12 13-2-4 13 8 9-13 5-1 13-13-4-11 7-4-13-13-2 8-11-2-6Z" fill="#F97316"/>
  <path d="M14 26.5 19 14l7 5.8 7-8.1 4.2 9.3 9.3-1.5-2.8 9.5 5.7 6.1-9 3.4-.8 9.2-8.8-2.8-8.1 5.1-3-9.1-9.2-1.4 5.7-7.7-2.2-5.3Z" fill="#FDE68A"/>
  <text x="32" y="37" fill="#EA580C" font-family="Arial, Helvetica, sans-serif" font-size="14" font-weight="900" letter-spacing="-0.7" text-anchor="middle">NEW</text>
  <path d="M13 19c6-5.3 16-7.6 25-6.8" stroke="#FFF7ED" stroke-width="3.4" stroke-linecap="round"/>
  <path d="M52 8l1 3.4 3.4 1-3.4 1-1 3.4-1-3.4-3.4-1 3.4-1 1-3.4Z" fill="#EC4899"/>
</svg>
